<svg viewBox="0 0 1000 1000" xmlns="http://www.w3.org/2000/svg"><path d="M676.555 823.353V299.116H499.5V176H1000V299.116H822.946V823.353H676.555Z" fill="#540CFA"/><path d="m228.89 823.35c-40.523 0-81.047-7.342-121.57-22.026-39.89-15.322-75.665-37.985-107.32-67.991l79.781-96.72c22.161 19.153 46.538 34.794 73.132 46.924 27.227 12.13 53.82 18.195 79.78 18.195 29.127 0 50.655-5.427 64.585-16.28 14.563-10.853 21.844-25.537 21.844-44.051 0-9.576-2.216-17.875-6.648-24.898-3.799-7.022-9.814-13.087-18.046-18.195-7.598-5.745-17.095-10.853-28.493-15.322-10.764-5.107-22.794-10.533-36.091-16.279l-80.73-34.474c-15.83-6.385-31.343-14.684-46.539-24.899-14.563-10.214-27.86-22.025-39.89-35.432-11.397-14.045-20.578-30.005-27.543-47.881-6.965-18.514-10.448-39.262-10.448-62.245 0-25.537 5.382-49.477 16.146-71.822 10.764-22.983 25.96-42.774 45.589-59.373 19.629-17.237 42.74-30.643 69.333-40.22 27.227-9.576 56.986-14.364 89.278-14.364 36.092 0 71.55 7.023 106.38 21.068 35.458 14.045 66.483 34.474 93.077 61.288l-71.233 89.058c-20.262-15.96-40.523-28.09-60.785-36.389-20.262-8.938-42.74-13.407-67.434-13.407-24.06 0-43.372 5.107-57.936 15.322-13.929 9.576-20.894 23.302-20.894 41.178 0 9.576 2.216 17.875 6.648 24.898 5.065 6.384 11.714 12.449 19.945 18.195 8.865 5.107 18.995 10.214 30.393 15.322 11.397 4.469 23.744 9.576 37.041 15.322l79.78 32.559c37.991 15.322 67.751 36.39 89.279 63.203 22.161 26.813 33.241 62.245 33.241 106.3 0 26.175-5.382 51.073-16.146 74.695-10.13 22.983-25.327 43.412-45.589 61.287-19.628 17.238-44.005 31.283-73.132 42.136-29.126 10.214-62.051 15.322-98.776 15.322z" fill="#000"/></svg>