<svg width="50" height="50" viewBox="0 0 50 50" fill="none" xmlns="http://www.w3.org/2000/svg">
<rect width="50" height="50" fill="url(#paint0_linear)"/>
<path fill-rule="evenodd" clip-rule="evenodd" d="M26.9844 34.4145C27.2334 34.7799 27.3784 35.2179 27.3784 35.6889C27.3784 36.9653 26.3135 38 25 38C23.6865 38 22.6216 36.9653 22.6216 35.6889C22.6216 35.2179 22.7666 34.7799 23.0156 34.4145L17.7361 30.3644C17.3511 30.625 16.8831 30.7778 16.3784 30.7778C15.0648 30.7778 14 29.7431 14 28.4667C14 27.3384 14.832 26.3989 15.9324 26.1961V23.8039C14.832 23.6011 14 22.6616 14 21.5333C14 20.2569 15.0648 19.2222 16.3784 19.2222C16.8831 19.2222 17.3511 19.375 17.7361 19.6356L23.0156 15.5855C22.7666 15.2201 22.6216 14.7821 22.6216 14.3111C22.6216 13.0347 23.6865 12 25 12C26.3135 12 27.3784 13.0347 27.3784 14.3111C27.3784 14.7821 27.2334 15.2201 26.9844 15.5855L32.2639 19.6356C32.6489 19.375 33.1169 19.2222 33.6216 19.2222C34.9352 19.2222 36 20.2569 36 21.5333C36 22.6616 35.168 23.6011 34.0676 23.8039V26.1961C35.168 26.3989 36 27.3384 36 28.4667C36 29.7431 34.9352 30.7778 33.6216 30.7778C33.1169 30.7778 32.6489 30.625 32.2639 30.3644L26.9844 34.4145ZM24.5541 30.7372V33.4183C24.2202 33.4799 23.911 33.6092 23.6423 33.7911L18.3628 29.741C18.6118 29.3757 18.7568 28.9376 18.7568 28.4667C18.7568 27.9991 18.6138 27.5639 18.3681 27.2001L20.6892 25.5383L23.0102 27.2001C22.7645 27.5639 22.6216 27.9991 22.6216 28.4667C22.6216 29.5949 23.4537 30.5344 24.5541 30.7372ZM26.3577 33.7911C26.089 33.6092 25.7798 33.4799 25.4459 33.4183V30.7372C26.5463 30.5344 27.3784 29.5949 27.3784 28.4667C27.3784 27.9991 27.2355 27.5639 26.9898 27.2001L29.3108 25.5383L31.6319 27.2001C31.3862 27.5639 31.2432 27.9991 31.2432 28.4667C31.2432 28.9376 31.3882 29.3757 31.6372 29.741L26.3577 33.7911ZM19.9374 25L17.7413 26.5724C17.4714 26.3887 17.1604 26.2581 16.8243 26.1961V23.8039C17.1604 23.7419 17.4714 23.6113 17.7413 23.4276L19.9374 25ZM18.3681 22.7999L20.6892 24.4617L23.0102 22.7999C22.7645 22.4361 22.6216 22.0009 22.6216 21.5333C22.6216 20.4051 23.4537 19.4656 24.5541 19.2628V16.5817C24.2202 16.5201 23.911 16.3908 23.6423 16.2089L18.3628 20.259C18.6118 20.6243 18.7568 21.0624 18.7568 21.5333C18.7568 22.0009 18.6138 22.4361 18.3681 22.7999ZM33.1757 26.1961C32.8396 26.2581 32.5286 26.3887 32.2587 26.5724L30.0626 25L32.2587 23.4276C32.5286 23.6113 32.8396 23.7419 33.1757 23.8039V26.1961ZM31.6372 20.259L26.3577 16.2089C26.089 16.3908 25.7798 16.5201 25.4459 16.5817V19.2628C26.5463 19.4656 27.3784 20.4051 27.3784 21.5333C27.3784 22.0009 27.2355 22.4361 26.9898 22.7999L29.3108 24.4617L31.6319 22.7999C31.3862 22.4361 31.2432 22.0009 31.2432 21.5333C31.2432 21.0624 31.3882 20.6243 31.6372 20.259ZM25 26.1556C24.493 26.1556 24.023 26.3097 23.6371 26.5724L21.441 25L23.6371 23.4276C24.023 23.6903 24.493 23.8444 25 23.8444C25.507 23.8444 25.977 23.6903 26.3629 23.4276L28.559 25L26.3629 26.5724C25.977 26.3097 25.507 26.1556 25 26.1556ZM25 22.9778C25.821 22.9778 26.4865 22.3311 26.4865 21.5333C26.4865 20.7356 25.821 20.0889 25 20.0889C24.179 20.0889 23.5135 20.7356 23.5135 21.5333C23.5135 22.3311 24.179 22.9778 25 22.9778ZM26.4865 28.4667C26.4865 29.2644 25.821 29.9111 25 29.9111C24.179 29.9111 23.5135 29.2644 23.5135 28.4667C23.5135 27.6689 24.179 27.0222 25 27.0222C25.821 27.0222 26.4865 27.6689 26.4865 28.4667ZM33.6216 22.9778C34.4426 22.9778 35.1081 22.3311 35.1081 21.5333C35.1081 20.7356 34.4426 20.0889 33.6216 20.0889C32.8007 20.0889 32.1351 20.7356 32.1351 21.5333C32.1351 22.3311 32.8007 22.9778 33.6216 22.9778ZM35.1081 28.4667C35.1081 29.2644 34.4426 29.9111 33.6216 29.9111C32.8007 29.9111 32.1351 29.2644 32.1351 28.4667C32.1351 27.6689 32.8007 27.0222 33.6216 27.0222C34.4426 27.0222 35.1081 27.6689 35.1081 28.4667ZM16.3784 22.9778C17.1993 22.9778 17.8649 22.3311 17.8649 21.5333C17.8649 20.7356 17.1993 20.0889 16.3784 20.0889C15.5574 20.0889 14.8919 20.7356 14.8919 21.5333C14.8919 22.3311 15.5574 22.9778 16.3784 22.9778ZM17.8649 28.4667C17.8649 29.2644 17.1993 29.9111 16.3784 29.9111C15.5574 29.9111 14.8919 29.2644 14.8919 28.4667C14.8919 27.6689 15.5574 27.0222 16.3784 27.0222C17.1993 27.0222 17.8649 27.6689 17.8649 28.4667ZM25 37.1333C25.821 37.1333 26.4865 36.4866 26.4865 35.6889C26.4865 34.8911 25.821 34.2444 25 34.2444C24.179 34.2444 23.5135 34.8911 23.5135 35.6889C23.5135 36.4866 24.179 37.1333 25 37.1333ZM26.4865 14.3111C26.4865 15.1089 25.821 15.7556 25 15.7556C24.179 15.7556 23.5135 15.1089 23.5135 14.3111C23.5135 13.5134 24.179 12.8667 25 12.8667C25.821 12.8667 26.4865 13.5134 26.4865 14.3111Z" fill="white"/>
<defs>
<linearGradient id="paint0_linear" x1="-25" y1="25" x2="25" y2="75" gradientUnits="userSpaceOnUse">
<stop stop-color="#F2C314"/>
<stop offset="1" stop-color="#FC3832"/>
</linearGradient>
</defs>
</svg>
