<svg width="20" height="20" viewBox="0 0 20 20" fill="none" xmlns="http://www.w3.org/2000/svg">
<path fill-rule="evenodd" clip-rule="evenodd" d="M20 10C20 15.5228 15.5228 20 10 20C4.47715 20 0 15.5228 0 10C0 4.47715 4.47715 0 10 0C15.5228 0 20 4.47715 20 10ZM10.25 17.6174C13.6882 17.6174 16.6035 15.3785 17.6174 12.279C16.462 13.1208 15.039 13.6174 13.5 13.6174C9.63401 13.6174 6.5 10.4834 6.5 6.61745C6.5 5.07845 6.99665 3.65546 7.83842 2.5C4.73896 3.51391 2.5 6.42921 2.5 9.86744C2.5 14.1477 5.96979 17.6174 10.25 17.6174Z" fill="#540CFA"/>
</svg>
