<svg width="50" height="50" viewBox="0 0 50 50" fill="none" xmlns="http://www.w3.org/2000/svg">
<rect width="50" height="50" fill="url(#paint0_linear)"/>
<path fill-rule="evenodd" clip-rule="evenodd" d="M29.2703 15.8649C29.2703 18.5517 31.4483 20.7297 34.1351 20.7297C36.8219 20.7297 39 18.5517 39 15.8649C39 13.1781 36.8219 11 34.1351 11C31.4483 11 29.2703 13.1781 29.2703 15.8649ZM27.3319 15.5405C27.3528 15.0956 27.4163 14.6618 27.5186 14.2432H18.892C16.7425 14.2432 15 15.9861 15 18.1352V31.108C15 33.2575 16.7429 35 18.892 35H31.8648C34.0142 35 35.7568 33.2571 35.7568 31.108V22.4814C35.3382 22.5837 34.9044 22.6472 34.4595 22.6681V31.108C34.4595 32.5408 33.2976 33.7027 31.8648 33.7027H18.892C17.4592 33.7027 16.2973 32.5409 16.2973 31.108V18.1352C16.2973 16.7025 17.4591 15.5405 18.892 15.5405H27.3319Z" fill="white"/>
<defs>
<linearGradient id="paint0_linear" x1="-25" y1="25" x2="25" y2="75" gradientUnits="userSpaceOnUse">
<stop stop-color="#32FBFC"/>
<stop offset="1" stop-color="#3214F2"/>
</linearGradient>
</defs>
</svg>
