<svg viewBox="0 0 95 14" xmlns="http://www.w3.org/2000/svg"><path d="m47.804 13v-9.504h-3.222v-2.232h9.108v2.232h-3.222v9.504h-2.664z" fill="#540CFA"/><path d="m54.548 13v-8.928h2.16l0.18 1.566h0.072c0.324-0.612 0.714-1.062 1.17-1.35s0.912-0.432 1.368-0.432c0.252 0 0.456 0.018 0.612 0.054 0.168 0.024 0.318 0.066 0.45 0.126l-0.432 2.286c-0.168-0.048-0.324-0.084-0.468-0.108s-0.312-0.036-0.504-0.036c-0.336 0-0.69 0.12-1.062 0.36-0.36 0.24-0.66 0.666-0.9 1.278v5.184h-2.646z" fill="#540CFA"/><path d="m63.46 13.216c-0.408 0-0.78-0.072-1.116-0.216-0.324-0.132-0.6-0.318-0.828-0.558-0.228-0.252-0.408-0.54-0.54-0.864-0.12-0.324-0.18-0.678-0.18-1.062 0-0.93596 0.396-1.668 1.188-2.196s2.07-0.882 3.834-1.062c-0.024-0.396-0.144-0.708-0.36-0.936-0.204-0.24-0.552-0.36-1.044-0.36-0.384 0-0.768 0.072-1.152 0.216-0.372 0.144-0.774 0.342-1.206 0.594l-0.954-1.746c0.576-0.348 1.176-0.63 1.8-0.846 0.636-0.216 1.308-0.324 2.016-0.324 1.152 0 2.028 0.33 2.628 0.99 0.612 0.648 0.918 1.662 0.918 3.042v5.112h-2.16l-0.18-0.918h-0.072c-0.384 0.336-0.786 0.612-1.206 0.828-0.42 0.204-0.882 0.306-1.386 0.306zm0.9-2.052c0.3 0 0.558-0.066 0.774-0.198s0.444-0.318 0.684-0.558v-1.566c-0.936 0.132-1.584 0.324-1.944 0.576s-0.54 0.552-0.54 0.89996c0 0.288 0.09 0.504 0.27 0.648 0.192 0.132 0.444 0.198 0.756 0.198z" fill="#540CFA"/><path d="m74.59 13.216c-0.624 0-1.206-0.102-1.746-0.306-0.528-0.216-0.99-0.522-1.386-0.918s-0.708-0.882-0.936-1.458c-0.228-0.58796-0.342-1.254-0.342-1.998s0.126-1.404 0.378-1.98c0.252-0.588 0.588-1.08 1.008-1.476 0.432-0.396 0.93-0.696 1.494-0.9 0.564-0.216 1.152-0.324 1.764-0.324 0.552 0 1.038 0.09 1.458 0.27 0.432 0.18 0.816 0.408 1.152 0.684l-1.242 1.71c-0.42-0.348-0.822-0.522-1.206-0.522-0.648 0-1.158 0.228-1.53 0.684s-0.558 1.074-0.558 1.854 0.186 1.398 0.558 1.854c0.384 0.456 0.864 0.684 1.44 0.684 0.288 0 0.564-0.06 0.828-0.18 0.276-0.132 0.534-0.288 0.774-0.468l1.044 1.728c-0.444 0.384-0.924 0.66-1.44 0.828-0.516 0.156-1.02 0.234-1.512 0.234z" fill="#540CFA"/><path d="m79.105 13v-12.618h2.574v7.236h0.072l2.826-3.546h2.88l-3.132 3.672 3.366 5.256h-2.862l-2.016-3.474-1.134 1.278v2.196h-2.574z" fill="#540CFA"/><path d="m88.966 13v-8.928h2.16l0.18 1.566h0.072c0.324-0.612 0.714-1.062 1.17-1.35s0.912-0.432 1.368-0.432c0.252 0 0.456 0.018 0.612 0.054 0.168 0.024 0.318 0.066 0.45 0.126l-0.432 2.286c-0.168-0.048-0.324-0.084-0.468-0.108s-0.312-0.036-0.504-0.036c-0.336 0-0.69 0.12-1.062 0.36-0.36 0.24-0.66 0.666-0.9 1.278v5.184h-2.646z" fill="#540CFA"/><path d="m4.9982 13.216c-0.768 0-1.536-0.138-2.304-0.414-0.756-0.288-1.434-0.714-2.034-1.278l1.512-1.818c0.42 0.35996 0.882 0.65396 1.386 0.88196 0.516 0.228 1.02 0.342 1.512 0.342 0.552 0 0.96-0.102 1.224-0.306 0.276-0.204 0.414-0.48 0.414-0.82796 0-0.18-0.042-0.336-0.126-0.468-0.072-0.132-0.186-0.246-0.342-0.342-0.144-0.108-0.324-0.204-0.54-0.288-0.204-0.096-0.432-0.198-0.684-0.306l-1.53-0.648c-0.3-0.12-0.594-0.276-0.882-0.468-0.276-0.192-0.528-0.414-0.756-0.666-0.216-0.264-0.39-0.564-0.522-0.9-0.132-0.348-0.198-0.738-0.198-1.17 0-0.48 0.102-0.93 0.306-1.35 0.204-0.432 0.492-0.804 0.864-1.116 0.372-0.324 0.81-0.576 1.314-0.756 0.516-0.18 1.08-0.27 1.692-0.27 0.684 0 1.356 0.132 2.016 0.396 0.672 0.264 1.26 0.648 1.764 1.152l-1.35 1.674c-0.384-0.3-0.768-0.528-1.152-0.684-0.384-0.168-0.81-0.252-1.278-0.252-0.456 0-0.822 0.096-1.098 0.288-0.264 0.18-0.396 0.438-0.396 0.774 0 0.18 0.042 0.336 0.126 0.468 0.096 0.12 0.222 0.234 0.378 0.342 0.168 0.096 0.36 0.192 0.576 0.288 0.216 0.084 0.45 0.18 0.702 0.288l1.512 0.612c0.72 0.288 1.284 0.684 1.692 1.188 0.42 0.504 0.63 1.17 0.63 1.998 0 0.49196-0.102 0.95996-0.306 1.404-0.192 0.432-0.48 0.816-0.864 1.152-0.372 0.324-0.834 0.588-1.386 0.792-0.552 0.192-1.176 0.288-1.872 0.288z"/><path d="m11.202 13v-12.618h2.646v3.096l-0.126 1.602c0.336-0.3 0.726-0.576 1.17-0.828 0.444-0.264 0.972-0.396 1.584-0.396 0.972 0 1.674 0.318 2.106 0.954 0.444 0.636 0.666 1.518 0.666 2.646v5.544h-2.646v-5.202c0-0.648-0.09-1.092-0.27-1.332-0.168-0.24-0.444-0.36-0.828-0.36-0.336 0-0.624 0.078-0.864 0.234-0.24 0.144-0.504 0.354-0.792 0.63v6.03h-2.646z"/><path d="m25.319 13.216c-0.564 0-1.11-0.102-1.638-0.306-0.528-0.216-0.996-0.522-1.404-0.918-0.396-0.396-0.714-0.882-0.954-1.458-0.24-0.58796-0.36-1.254-0.36-1.998s0.12-1.404 0.36-1.98c0.24-0.588 0.558-1.08 0.954-1.476 0.408-0.396 0.876-0.696 1.404-0.9 0.528-0.216 1.074-0.324 1.638-0.324s1.104 0.108 1.62 0.324c0.528 0.204 0.99 0.504 1.386 0.9 0.408 0.396 0.732 0.888 0.972 1.476 0.24 0.576 0.36 1.236 0.36 1.98s-0.12 1.41-0.36 1.998c-0.24 0.576-0.564 1.062-0.972 1.458-0.396 0.396-0.858 0.702-1.386 0.918-0.516 0.204-1.056 0.306-1.62 0.306zm0-2.142c0.54 0 0.948-0.228 1.224-0.684 0.276-0.45596 0.414-1.074 0.414-1.854s-0.138-1.398-0.414-1.854-0.684-0.684-1.224-0.684c-0.552 0-0.966 0.228-1.242 0.684-0.264 0.456-0.396 1.074-0.396 1.854s0.132 1.398 0.396 1.854c0.276 0.456 0.69 0.684 1.242 0.684z"/><path d="m32.823 13l-2.232-8.928h2.628l0.864 4.14c0.072 0.444 0.138 0.882 0.198 1.314s0.126 0.87596 0.198 1.332h0.072c0.084-0.456 0.162-0.90596 0.234-1.35 0.084-0.444 0.18-0.876 0.288-1.296l0.99-4.14h2.286l1.008 4.14c0.108 0.444 0.204 0.882 0.288 1.314s0.174 0.87596 0.27 1.332h0.072c0.084-0.456 0.15-0.89996 0.198-1.332 0.06-0.432 0.132-0.87 0.216-1.314l0.846-4.14h2.448l-2.142 8.928h-3.096l-0.81-3.564c-0.096-0.42-0.18-0.84-0.252-1.26s-0.15-0.87-0.234-1.35h-0.072c-0.084 0.48-0.162 0.93-0.234 1.35-0.06 0.42-0.132 0.84-0.216 1.26l-0.792 3.564h-3.024z"/></svg>