<svg version="1" xmlns="http://www.w3.org/2000/svg" width="933.333" height="933.333" viewBox="0 0 700.000000 700.000000"><path d="M144 124.6c-56.6 8-100.8 39.9-119 85.8-6.2 15.7-7.4 23.1-7.4 43.6 0 15.4.4 20.1 2.2 27.8 5.4 23.5 17.7 44.4 35.1 60 18.7 16.8 27.5 21.7 76.5 42.7 64.2 27.5 76.2 33.6 83.3 41.9 7.1 8.4 9.8 21.1 6.9 32.3-3.7 14.6-14.9 24.5-33.4 29.5-11.5 3.1-36.8 3-50.6-.1-25.3-5.8-53.2-19.7-75.6-37.9l-6.3-5-7.2 8.6c-3.9 4.8-15.8 19.3-26.5 32.2-10.6 12.9-20 24.3-20.9 25.4-1.5 1.7-1.3 2.1 4 7 25.8 24 63.9 43.6 101.4 52.1 26.9 6.1 60.7 7.7 86 4.1C252.3 566.1 297 534 315.9 486c4.8-12.4 7.2-24.9 7.8-40.5 1.6-43.6-12.4-75.2-44.2-100-14.9-11.6-23.5-16.2-51-27.5-84.2-34.6-87.3-36-97.2-43.4-11.3-8.6-15-16.3-14.1-30 .6-9 3.3-15.2 9.3-21.1 9.3-9.4 25.5-14.5 45.8-14.5 26.9 0 50.4 8 77.8 26.5 6.1 4.1 11.2 7.5 11.4 7.5.3 0 39-48.2 48.9-60.9.8-1-.4-2.7-5.4-7.5-25.3-23.9-61.3-41.5-99.5-48.7-14.7-2.8-46.3-3.5-61.5-1.3zM349 166.5V210h124v367h103V210h124v-87H349v43.5z"/></svg>